<svg width="532" height="532" viewBox="0 0 532 532" fill="none" xmlns="http://www.w3.org/2000/svg">
<rect width="532" height="532" fill="#F5F5F5"/>
<path d="M411.923 363.964L304.544 366.52C304.544 366.52 288.18 310.497 269.246 275.334C248.656 237.095 211.887 209.151 211.887 209.151L339.842 204.738C339.842 204.738 370.477 223.483 397.2 263.568C426.615 307.69 429.557 357.695 429.557 357.695C433.126 364.12 419.27 363.789 411.923 363.964Z" fill="white"/>
<path d="M285.424 260.626L291.954 271.369L324.204 269.833L381.022 267.98L372.198 256.214H333.223L285.424 259.146L285.424 260.626Z" fill="#FBEFAF"/>
<path d="M297.189 284.158L303.72 294.901L335.97 293.365L391.317 290.041L386.905 278.275L344.989 279.746L297.189 282.679V284.158Z" fill="#FBEFAF"/>
<path d="M307.484 307.69L310.426 317.986L331.016 316.515L348.665 315.044L345.724 306.22H328.075L307.484 306.21V307.69Z" fill="#FBEFAF"/>
<path d="M300.072 366.505C299.925 365.931 299.778 365.372 299.631 364.799L301.837 368.652C300.469 368.593 299.91 367.505 300.072 366.505Z" fill="white"/>
<path d="M360.564 409.068C355.843 415.172 348.063 422.526 340.121 418.922C337.385 417.687 335.047 414.319 334.267 410.892C330.193 416.54 322.663 422.673 315.545 422.452C311.618 422.334 308.779 418.569 308.765 414.863C303.102 418.761 296.175 421.952 289.41 423.526C289.248 424.011 289.071 424.511 288.91 425.011C288.41 426.658 288.63 427.144 288.571 427.144C292.351 429.497 290.13 436.248 285.262 434.85C280.394 433.453 279.335 429.276 280.012 424.541C279.35 424.526 278.703 424.496 278.056 424.423C271.967 423.746 265.245 421.996 263.789 415.319C262.789 410.716 263.819 405.597 265.584 400.817C259.142 407.289 250.862 412.966 242.125 409.539C236.845 407.465 232.271 399.464 235.875 394.743C232.007 396.052 228.536 393.434 227.477 389.802C218.755 400.391 208.077 409.642 194.458 412.936C183.119 415.672 168.235 412.716 165.838 400.597C160.646 406.142 152.41 409.995 145.865 412.966C137.893 416.599 129.245 419.54 120.509 420.525C110.891 421.614 98.0952 416.701 98.1393 406.789C93.5212 410.274 87.8442 412.907 82.2112 412.569C76.5635 412.23 72.9896 407.833 74.2545 402.318C75.8429 395.405 83.1083 389.919 89.4326 387.654C91.3739 386.963 94.4772 386.11 96.8598 386.492C94.7566 383.051 95.3302 378.286 98.3158 375.021C103.272 369.608 110.391 370.167 116.788 372.388C114.847 366.932 115.597 360.681 118.759 355.43C124.024 346.68 134.54 343.356 144.129 342.473C164.587 340.591 188.105 348.842 193.37 369.829C196.517 365.27 201.812 361.946 207.209 360.549C204.15 359.107 201.929 355.872 201.121 352.489C199.753 346.768 202.621 341.179 206.253 336.914C215.946 325.516 231.492 318.956 246.141 317.647C257.142 316.676 276.967 317.809 279.747 331.634C281.321 339.488 276.364 347.121 269.731 352.548C279.012 350.915 289.645 351.915 294.263 357.475C299.072 363.284 294.425 370.02 288.027 375.3C294.175 374.432 300.631 375.285 306.103 377.859C310.338 379.83 313.809 383.683 315.354 388.037C318.722 383.272 321.398 378.124 324.399 373.123L330.708 374.374C328.767 379.698 326.134 384.963 322.928 389.846C327.575 387.419 332.679 385.948 336.782 386.272C342.459 386.713 348.578 389.493 348.666 394.376C356.284 390.169 367.594 390.11 372.007 400.406C374.654 406.583 365.065 410.583 360.564 409.068Z" fill="#EBEBEB"/>
<path d="M408.098 277.216C404.348 270.628 400.465 263.788 396.038 257.141C401.436 259.362 408.084 258.009 408.981 250.89C409.554 246.405 406.084 242.639 403.701 239.227C400.098 234.094 396.362 228.623 391.788 224.314C390.273 222.902 388.185 223.917 387.758 226.035C387.258 228.461 387.67 231.079 389.229 233.035C389.861 233.844 390.7 234.536 391.7 234.859C392.523 235.138 393.126 235.109 393.715 234.83C395.288 236.874 396.877 238.918 398.377 241.007C399.803 243.022 402.054 245.36 402.951 247.669C405.436 254.111 399.568 255.155 394.45 253.964C394.229 253.905 394.053 253.935 393.876 253.993C380.228 234.256 362.991 215.989 342.592 205.106C342.062 204.827 341.444 205.533 341.93 205.973C342.121 206.15 342.298 206.312 342.489 206.488C353.916 216.946 365.565 226.799 375.727 238.595C386.126 250.655 395.274 263.7 402.877 277.702C410.202 291.203 416.217 305.455 420.335 320.28C424.144 333.928 425.497 347.591 427.071 361.563C423.482 362.166 416.864 361.872 416.305 361.902C418.908 356.828 422.585 350.209 422.423 344.9C422.247 339.311 417.202 338.237 412.849 340.34C403.73 344.723 395.921 354.18 388.846 361.137L388.832 361.152C387.743 362.24 386.361 362.99 384.831 363.034C379.007 363.181 373.183 363.299 367.359 363.417C346.063 363.814 332.296 363.637 304.352 363.637C296.999 335.693 287.968 304.925 273.511 278.261C276.305 278.364 278.982 278.849 282.085 279.187C284.189 279.423 285.262 276.378 283.806 275.04C280.041 271.598 275.114 271.319 270.099 272.157C256.98 249.243 239.213 225.417 216.696 211.489C241.111 210.68 313.177 207.739 337.356 205.827C337.9 205.782 338.062 205.253 337.929 204.797C337.826 204.444 337.547 204.15 337.135 204.15C315.78 204.371 230.815 206.268 211.916 208.665C210.166 208.886 211.269 210.474 211.651 210.812C222.462 220.519 233.198 229.829 242.567 241.021C247.597 247.037 252.244 253.346 256.568 259.862C247.258 262.788 224.932 270.98 238.36 279.702C243.64 283.114 250.053 282.835 255.833 281.673C259.892 280.849 263.819 279.481 267.878 278.687H267.893C268.246 279.349 268.628 280.011 268.981 280.672C283.336 307.264 292.042 335.723 299.631 364.799C299.778 365.373 299.925 365.932 300.073 366.505C299.911 367.505 300.47 368.594 301.837 368.652C310.162 369.02 318.53 369.094 326.914 369.05C326.031 370.388 325.193 371.741 324.399 373.124C321.398 378.124 318.722 383.272 315.354 388.037C313.809 383.683 310.338 379.83 306.103 377.859C300.631 375.286 294.175 374.432 288.027 375.3C294.425 370.02 299.072 363.284 294.263 357.475C289.645 351.915 279.012 350.915 269.731 352.548C276.364 347.121 281.321 339.488 279.747 331.634C276.967 317.809 257.142 316.676 246.141 317.647C231.492 318.956 215.946 325.516 206.253 336.914C202.621 341.179 199.753 346.768 201.121 352.489C201.929 355.872 204.15 359.107 207.209 360.549C201.812 361.946 196.517 365.27 193.37 369.829C188.105 348.841 164.587 340.591 144.129 342.473C134.54 343.356 124.024 346.679 118.759 355.431C115.597 360.681 114.847 366.932 116.788 372.388C110.391 370.167 103.272 369.608 98.3158 375.021C95.3302 378.286 94.7566 383.051 96.8598 386.493C94.4772 386.11 91.3739 386.963 89.4326 387.654C83.1083 389.919 75.8429 395.405 74.2545 402.318C72.9896 407.833 76.5635 412.231 82.2112 412.569C87.8442 412.907 93.5212 410.274 98.1393 406.789C98.0952 416.702 110.891 421.614 120.509 420.526C129.245 419.54 137.893 416.599 145.865 412.966C152.41 409.995 160.646 406.142 165.838 400.597C168.235 412.716 183.119 415.672 194.458 412.936C208.077 409.642 218.755 400.391 227.477 389.802C228.536 393.434 232.007 396.052 235.875 394.743C232.271 399.464 236.845 407.465 242.125 409.539C250.862 412.966 259.142 407.289 265.584 400.818C263.819 405.597 262.789 410.716 263.789 415.319C265.245 421.996 271.967 423.746 278.056 424.423C278.703 424.496 279.35 424.526 280.012 424.541C279.335 429.276 280.394 433.453 285.262 434.85C290.13 436.248 292.351 429.497 288.571 427.144C288.63 427.144 288.41 426.658 288.91 425.011C289.071 424.511 289.248 424.011 289.41 423.526C296.175 421.952 303.102 418.761 308.765 414.863C308.779 418.569 311.618 422.334 315.545 422.452C322.663 422.673 330.193 416.54 334.267 410.892C335.047 414.319 337.385 417.687 340.121 418.922C348.063 422.526 355.843 415.172 360.564 409.068C365.065 410.583 374.654 406.583 372.007 400.406C367.594 390.111 356.284 390.169 348.666 394.376C348.578 389.493 342.459 386.713 336.782 386.272C332.679 385.948 327.575 387.419 322.928 389.846C326.134 384.963 328.767 379.698 330.708 374.374C331.355 372.579 331.914 370.785 332.399 368.991C344.062 368.858 355.74 368.52 367.359 368.388C379.007 368.255 390.67 368.064 402.318 367.711C402.966 367.696 403.613 367.667 404.26 367.652C401.686 372.418 398.965 377.095 396.068 381.61C394.406 384.183 396.553 387.978 399.642 387.831C406.834 387.478 418.673 384.566 422.644 377.756C423.835 375.712 421.85 372.859 419.482 373.638C415.702 374.859 411.908 376.58 408.025 377.859C409.996 374.403 411.864 370.873 413.628 367.299C415.07 367.241 425.6 366.476 429.233 365.417C435.248 363.637 427.895 312.161 408.098 277.216ZM286.792 408.23C285.071 410.76 282.247 415.907 280.776 421.04C277.57 421.114 274.276 420.673 271.599 419.334C261.598 414.363 267.996 400.156 272.114 393.479C272.937 392.111 270.967 390.537 269.864 391.743C265.687 396.317 261.098 401.097 255.568 404.038C246.979 408.612 233.61 405.244 238.978 393.081C239.64 391.581 238.757 390.552 237.684 390.905C233.757 393.052 229.345 390.111 231.786 384.257C231.874 384.139 231.977 384.022 232.066 383.889C233.213 382.33 230.654 380.389 229.374 381.816C228.889 382.36 228.506 382.933 228.183 383.507C221.403 393.214 212.578 401.685 201.606 406.465C195.752 409.024 189.281 410.642 182.869 409.848C174.53 408.804 170.985 403.891 168.147 396.744C168.117 396.699 168.117 396.655 168.088 396.611C168.014 396.405 167.926 396.199 167.852 395.994C166.102 391.581 160.219 400.406 151.498 405.362C146.233 408.348 140.732 410.848 134.996 412.775C129.584 414.598 123.686 416.319 117.95 416.613C110.611 416.996 98.3011 412.642 102.699 402.671C103.493 400.876 101.404 398.891 99.8307 400.465C96.2274 404.038 75.7988 415.996 78.8138 401.509C80.2845 394.435 93.1682 386.301 99.4042 390.302C101.39 391.581 103.566 388.39 102.154 387.154C96.3892 382.11 101.669 375.153 108.317 374.962C112.964 374.844 117.274 377.33 121.289 379.271C123.51 380.33 125.936 377.624 124.024 375.727C116.73 368.505 120.951 357.254 128.598 352.283C135.452 347.827 144.321 346.871 152.307 347.018C160.543 347.18 169.088 348.886 176.147 353.342C184.428 358.563 188.207 366.005 191.09 375.05C191.605 376.683 194.429 376.506 194.238 374.624C194.223 374.55 194.208 374.477 194.193 374.403C196.444 371.506 198.444 368.652 201.488 366.388C204.753 363.961 208.518 362.431 212.416 361.343C213.019 361.166 214.637 360.696 214.637 359.225C214.637 357.754 212.489 358.651 211.681 358.328C195.267 351.857 212.063 335.737 220.196 330.634C228.683 325.324 238.449 322.177 248.435 321.53C256.627 321 273.07 321.486 275.849 331.575C279.085 343.341 262.76 352.239 254.568 356.548C252.729 357.519 254.009 360.313 255.936 359.828C258.009 359.313 260.216 358.46 262.422 357.328C270.628 355.372 279.217 352.871 287.351 356.563C298.793 361.755 288.027 371.682 283.38 375.168C282.085 376.139 280.718 377.021 279.35 377.874C277.232 378.874 275.261 380.124 273.496 381.639C273.084 381.919 272.673 382.183 272.276 382.477C271.57 383.022 271.937 384.375 272.952 384.066C275.011 383.404 278.159 381.933 281.482 379.918C286.909 377.977 292.454 377.08 298.617 378.521C302.896 379.536 308.044 381.492 310.633 385.316C311.986 387.346 312.456 389.522 312.486 391.743C311.736 392.626 310.971 393.493 310.132 394.346C306.323 398.214 301.852 401.494 296.719 403.391C292.498 404.965 289.424 404.377 286.792 408.23ZM324.972 392.949C332.679 388.566 347.004 385.698 345.121 399.376C345.004 400.229 346.195 400.435 346.666 399.788C346.857 399.509 348.313 397.729 348.475 397.464C352.71 394.699 356.064 393.773 361.314 395.111C363.726 395.729 368.888 398.935 369.065 401.876C369.286 405.333 365.506 407.451 361.976 405.892C360.711 405.333 359.799 404.318 358.74 403.45C358.123 402.95 356.976 403.215 357.034 404.156C357.123 405.73 357.667 406.921 358.476 407.774C354.946 410.951 351.004 415.054 346.666 416.29C343.43 417.216 339.371 415.643 337.768 412.583C335.959 409.157 337.944 406.436 338.562 403.185C338.635 402.832 338.341 402.641 337.929 402.538C335.238 401.876 334.091 405.789 334.003 408.274C333.841 408.304 333.664 408.362 333.517 408.48C329.017 412.216 324.413 416.805 318.692 418.584C316.78 419.172 314.398 419.672 312.824 418.143C311.383 416.731 311.662 414.687 311.559 412.789C313.177 411.495 314.648 410.171 315.927 408.818C317.015 407.642 315.412 406.171 314.221 407.112C307.47 412.378 299.47 416.775 291.13 419.231C291.616 418.172 292.131 417.128 292.689 416.113C295.557 410.98 303.661 409.436 308.544 405.759C317.589 398.935 321.854 394.729 324.972 392.949ZM412.231 348.003C412.408 347.9 413.173 347.562 413.996 347.194C413.54 348.474 413.128 349.797 412.584 350.974C410.834 354.769 408.966 358.563 407.04 362.328C405.466 362.387 403.892 362.461 402.318 362.505C399.951 362.593 397.583 362.652 395.2 362.725C400.554 357.519 406.025 351.989 412.231 348.003ZM256.333 275.819C253.391 276.569 250.347 277.202 247.288 276.981C245.832 276.878 241.743 275.849 242.052 273.613C242.155 272.848 243.346 271.451 244.052 270.98C248.464 268.039 252.877 266.568 260.127 265.406C261.76 268.024 263.333 270.672 264.863 273.334C261.833 274.172 258.907 275.157 256.333 275.819Z" fill="black"/>
<path d="M292.099 235.733C297.912 246.347 316.039 253.429 327.655 250.373C338.135 247.616 340.575 238.539 333.838 230.351C332.835 229.132 330.678 230.439 331.187 231.893C332.663 236.118 334.145 240.741 329.689 243.537C326.79 245.356 322.626 245.648 319.358 245.504C309.491 245.069 301.621 239.246 293.797 234.035C292.719 233.317 291.533 234.7 292.099 235.733Z" fill="black"/>
<path d="M287.156 220.544C286.284 220.351 285.36 220.671 284.897 221.463C284.422 222.275 284.635 223.198 285.21 223.886C286.203 225.072 287.409 225.749 288.811 226.344C289.821 226.773 290.895 226.715 291.612 225.785C292.221 224.997 292.277 223.625 291.443 222.933C290.118 221.836 288.861 220.922 287.156 220.544Z" fill="black"/>
<path d="M326.634 225.225C327.677 225.929 328.698 226.103 329.923 225.909C330.989 225.74 331.297 224.393 330.87 223.58C329.897 221.726 327.52 221.005 325.546 220.991C324.574 220.984 323.652 222.239 324.325 223.117C324.611 223.489 324.88 223.895 325.218 224.215C325.628 224.603 326.167 224.91 326.634 225.225Z" fill="black"/>
<path d="M382.33 267.186C380.771 262.539 371.903 254.391 371.903 254.391C371.903 254.391 305.837 255.45 283.938 258.553C283.085 258.67 283.938 260.274 283.938 260.274C283.938 260.274 287.879 266.759 289.424 270.628C289.806 271.583 289.703 272.525 290.571 273.201C291.836 274.202 294.248 273.966 295.718 273.878C320.53 272.451 338.179 270.981 381.257 269.819C382.36 269.789 383.139 268.142 382.33 267.186ZM293.218 269.833C292.953 268.686 291.674 266.024 291.336 265.377C290.424 263.656 289.438 262.171 288.218 260.876C332.296 259.215 364.843 257.465 370.535 257.744C373.668 260.406 376.035 263.391 377.771 265.818C348.474 266.568 294.306 269.628 293.218 269.833Z" fill="black"/>
<path d="M389.273 278.849C388.743 277.923 388.096 277.202 387.022 277.173C374.845 276.893 362.564 277.834 350.386 278.467C341.4 278.937 332.429 279.408 323.442 279.849C314.515 280.291 307.22 280.261 296.278 281.791C295.704 281.879 295.484 283.35 295.851 284.056C297.601 287.409 298.528 290.674 299.366 293.983C299.587 294.866 299.69 295.439 300.528 295.998C301.469 296.631 303.381 296.263 304.396 296.263C312.382 296.174 388.817 293.983 392.17 292.145C392.817 291.792 397.082 292.395 389.273 278.849ZM302.69 292.556C301.846 289.311 300.925 286.718 299.925 284.776C304.764 283.923 383.934 280.173 385.184 280.776C386.155 281.261 389.684 288.085 389.655 289.468C383.816 289.63 304.176 292.718 302.69 292.556Z" fill="black"/>
<path d="M349.931 312.735C348.578 308.293 347.181 305.308 346.71 304.513C343.945 303.249 310.383 305.837 305.971 305.719C304.5 305.675 305.162 307.94 305.206 308.029C307.25 313.102 307.927 314.559 308.927 318.192C309.177 319.089 310.633 319.162 311.515 319.103C327.723 318.044 335.238 318.662 348.343 317.103C349.902 316.927 351.284 317.176 349.931 312.735ZM346.96 314.132C338.092 315.368 330.473 315.353 322.722 315.676C320.502 315.779 318.237 316.073 316.016 316.044C312.31 315.97 312.413 316.544 311.015 313.412C310.177 311.573 309.839 310.102 309.03 308.69C317.707 307.484 339.857 307.293 344.21 306.705C344.254 306.69 347.166 311.47 346.96 314.132Z" fill="black"/>
<path d="M317.989 233.468C319.106 234.085 320.467 232.513 319.409 231.628C315.302 228.192 311.364 224.481 308.314 220.057C307.164 218.388 304.414 219.972 305.577 221.658C308.898 226.475 312.84 230.628 317.989 233.468Z" fill="black"/>
</svg>
